<svg viewBox="0 0 512 512" xmlns="http://www.w3.org/2000/svg"><path d="m86.46 329.43h-33.5v-128.86h53.32c14.47 0 25.55 3.76 33.24 11.28s11.54 18.11 11.54 31.79-3.85 24.27-11.54 31.79-18.77 11.28-33.24 11.28h-19.82zm0-69.73h11.11c12.3 0 18.46-5.35 18.46-16.06s-6.15-16.06-18.46-16.06h-11.11v32.13z"/><path d="m190.36 200.57 22.22 83.23 27.34-83.23h26.66l27.34 83.23 22.22-83.23h35.03l-38.45 128.86h-34.18l-25.29-74.68-25.29 74.68h-34.18l-38.45-128.86z"/><path d="m443.63 307.04h-47.85l-7.69 22.39h-35.72l49.05-128.86h36.57l49.05 128.86h-35.72zm-8.89-25.46-15.04-42.9-15.04 42.9z"/></svg>